<svg xmlns="http://www.w3.org/2000/svg" xmlns:xlink="http://www.w3.org/1999/xlink" version="1.1" x="0px" y="0px"
    viewBox="0 0 100 125" enable-background="new 0 0 100 100" xml:space="preserve">
    <g>
        <polygon fill="#d81717"
            points="60.5,40.8 63.8,44.1 59.8,48.1 64.8,53 73.7,44.1 60.5,30.9 51.6,39.9 56.5,44.8  " />
        <path fill="#d81717"
            d="M85.6,23.9l-5-5c-2.2-2.2-6-2.2-8.2,0L69,22.4l13.2,13.2l3.4-3.4c1.1-1.1,1.7-2.6,1.7-4.1   C87.3,26.5,86.7,25,85.6,23.9z" />
        <rect x="62.2" y="29.6" transform="matrix(0.7071 0.7071 -0.7071 0.7071 44.349 -40.8652)" fill="#d81717"
            width="18.6" height="7" />
        <path fill="#d81717"
            d="M83.4,81.5L59.9,57.9l-5-5l-3.3-3.3l-4.9-4.9l-25-25l0,0l-1.8-1.8c-1.4-1.4-3.6-1.4-4.9,0   c-1.4,1.4-1.4,3.6,0,4.9l26.9,26.9L23.3,68.1l-4.5,17.7l17.7-4.5l18.4-18.4l23.5,23.5c0.7,0.7,1.6,1,2.5,1c0.9,0,1.8-0.3,2.5-1   c1.2-1.2,1.3-3,0.4-4.4C83.7,81.8,83.6,81.6,83.4,81.5z M32.9,75l-4.4,1.1l1.1-4.4l17.1-17.1l3.3,3.3L32.9,75z" />
    </g>
</svg>