<svg xmlns="http://www.w3.org/2000/svg" xmlns:xlink="http://www.w3.org/1999/xlink" version="1.1" x="0px" y="0px"
    viewBox="0 0 24 24" enable-background="new 0 0 24 24" xml:space="preserve">
    <g>
        <path
            fill="white"
            d="M17.75,11.27527V4.25H2.25v11.5h11.02527c0.13232,2.22504,1.9671,4,4.22473,4c2.34326,0,4.25-1.90674,4.25-4.25   C21.75,13.24237,19.97504,11.40759,17.75,11.27527z M16.25,5.75v5.70923c-0.25732,0.0799-0.5022,0.18152-0.73621,0.30658   l-3.01428-4.01532l-3.06641,4.08838L6.99951,8.7998L3.75,12.86188V5.75H16.25z M7.62476,14.25H4.56049l2.44-3.0498l1.5033,1.87775   L7.62476,14.25z M12.50049,10.24951l1.83386,2.44299c-0.3963,0.44641-0.69385,0.97388-0.87512,1.5575H9.50024L12.50049,10.24951z    M17.5,18.25c-1.5166,0-2.75-1.2334-2.75-2.75s1.2334-2.75,2.75-2.75s2.75,1.2334,2.75,2.75S19.0166,18.25,17.5,18.25z" />
        <polygon
            fill="white"
            points="18.25,13.5 16.75,13.5 16.75,14.75 15.5,14.75 15.5,16.25 16.75,16.25 16.75,17.5 18.25,17.5 18.25,16.25    19.5,16.25 19.5,14.75 18.25,14.75  " />
    </g>
</svg>